<svg xmlns="http://www.w3.org/2000/svg" viewBox="0 0 242 56" class="design-iconfont"><g clip-path="url(#clip0_85_646)"><path d="M53.5957 41.16C53.6317 39.2338 53.8493 37.3153 54.2457 35.43L56.6657 21.93C57.9257 14.8 60.2057 12.85 66.9557 12.85H78.5957L76.4557 18.01H67.7057C63.9757 18.01 63.3257 19.5 62.4857 24.11L60.8157 33.43C60.3427 35.5908 60.0285 37.7833 59.8757 39.99C59.8757 42.51 61.5057 42.93 65.4257 42.93H74.0857L71.8957 48.09H62.8957C56.3457 48.09 53.5957 46.32 53.5957 41.16Z" fill="#203251"></path><path d="M77.1057 42.32C77.1738 40.6396 77.3778 38.9675 77.7157 37.32L78.9257 30.47C80.2257 23.02 82.0457 21.35 89.8157 21.35H93.0257C98.9357 21.35 101.406 22.98 101.406 27.45C101.337 29.1303 101.133 30.8024 100.796 32.45L99.5957 39.32C98.2957 46.77 96.4757 48.45 88.7057 48.45H85.4857C79.5757 48.42 77.1057 46.79 77.1057 42.32ZM89.1057 43.72C92.6457 43.72 93.2457 42.65 93.8557 39.25L95.0257 32.4C95.3191 31.0838 95.5064 29.7462 95.5857 28.4C95.5857 26.4 94.5857 26.02 91.5357 26.02H89.4357C85.8957 26.02 85.2957 27.09 84.6857 30.49L83.4857 37.32C83.1922 38.6362 83.0049 39.9738 82.9257 41.32C82.9257 43.32 83.9257 43.7 86.9757 43.7L89.1057 43.72Z" fill="#203251"></path><path d="M133.166 21.74C133.144 23.7538 132.944 25.7618 132.566 27.74L131.566 33.65C129.476 45.71 126.166 48.08 116.856 48.08H102.486L108.676 12.84H120.926C129.816 12.85 133.166 15.08 133.166 21.74ZM126.926 22.67C126.926 18.67 125.026 18.01 119.996 18.01H113.996L109.666 42.93H115.576C122.576 42.93 124.006 41.53 125.356 33.66L126.356 27.75C126.685 26.0752 126.876 24.3761 126.926 22.67Z" fill="#203251"></path><path d="M157.026 26.58C157.025 27.2507 156.964 27.92 156.846 28.58L156.176 32.32C155.426 36.46 153.886 37.91 150.026 37.91H139.786L139.546 39.32C139.417 39.9798 139.341 40.6484 139.316 41.32C139.316 42.95 140.156 43.32 142.856 43.32H152.216L150.306 48.02H141.736C135.736 48.02 133.546 46.49 133.546 42.72C133.569 41.6268 133.676 40.537 133.866 39.46L135.686 29.03C136.806 22.6 139.506 21.3 146.346 21.3H149.516C154.406 21.37 157.026 22.67 157.026 26.58ZM151.206 27.42C151.206 26.3 150.516 26.02 148.366 26.02H145.026C142.886 26.02 141.856 26.3 141.346 29.1L140.596 33.38H148.516C148.764 33.421 149.018 33.4071 149.26 33.3392C149.502 33.2713 149.727 33.1511 149.917 32.9871C150.108 32.8231 150.26 32.6193 150.364 32.39C150.467 32.1607 150.519 31.9115 150.516 31.66L151.026 28.66C151.118 28.2527 151.171 27.8375 151.186 27.42H151.206Z" fill="#203251"></path><path d="M157.336 43.39H168.336C170.156 43.39 170.486 43.11 170.806 41.3L171.226 38.83C171.307 38.4788 171.354 38.1204 171.366 37.76C171.366 37.15 171.046 37.06 169.976 37.06H164.616C160.516 37.06 159.166 36.27 159.166 33.61C159.214 32.3124 159.371 31.0212 159.636 29.75L160.006 27.65C160.936 22.3 162.336 21.65 167.596 21.65H179.376L177.376 26.36H167.626C165.806 26.36 165.486 26.63 165.156 28.45L164.786 30.55C164.708 30.902 164.661 31.26 164.646 31.62C164.646 32.22 164.976 32.32 166.046 32.32H171.626C175.726 32.32 177.076 33.11 177.076 35.76C177.032 37.0607 176.878 38.3554 176.616 39.63L176.096 42.56C175.266 47.4 173.866 48.05 168.366 48.05H158.176L157.336 43.39Z" fill="#203251"></path><path d="M184.246 21.69H190.026L185.416 48.09H179.636L184.246 21.69ZM186.026 11.4H192.026L190.956 17.4H184.956L186.026 11.4Z" fill="#203251"></path><path d="M215.356 27.47C215.287 29.1503 215.083 30.8224 214.746 32.47L211.856 48.81C210.746 55.15 207.996 56.4 202.646 56.4H192.586L191.746 51.65H201.336C204.966 51.65 205.666 51.37 206.336 47.28L206.666 45.46H200.026C194.116 45.46 191.646 43.83 191.646 39.36C191.714 37.6796 191.918 36.0075 192.256 34.36L192.946 30.49C194.296 23.04 196.026 21.37 203.796 21.37H207.026C212.886 21.37 215.356 23 215.356 27.47ZM207.526 40.74L209.026 32.4C209.319 31.0838 209.506 29.7462 209.586 28.4C209.586 26.4 208.586 26.02 205.536 26.02H203.436C199.896 26.02 199.336 27.09 198.736 30.49L198.026 34.32C197.741 35.6377 197.553 36.9747 197.466 38.32C197.466 40.32 198.466 40.7 201.516 40.7L207.526 40.74Z" fill="#203251"></path><path d="M241.936 26.44C241.829 28.3489 241.581 30.2474 241.196 32.12L238.406 48.12H232.626L235.466 32.12C235.72 30.9078 235.877 29.6772 235.936 28.44C235.936 26.81 235.236 26.44 233.046 26.44H226.246L222.476 48.04H216.706L221.316 21.64H234.116C240.076 21.69 241.936 23.09 241.936 26.44Z" fill="#203251"></path><path d="M37.3357 48.06H9.18568C9.04923 48.0591 8.91461 48.0285 8.79118 47.9703C8.66775 47.9122 8.55844 47.8278 8.4709 47.7231C8.38335 47.6185 8.31966 47.496 8.28422 47.3642C8.24878 47.2324 8.24244 47.0945 8.26567 46.96L9.83567 38.04H38.7657C38.903 38.0395 39.0387 38.069 39.1634 38.1266C39.288 38.1841 39.3986 38.2683 39.4872 38.3731C39.5759 38.478 39.6405 38.601 39.6765 38.7335C39.7125 38.866 39.7191 39.0047 39.6957 39.14L38.2557 47.32C38.21 47.5299 38.0937 47.7179 37.9263 47.8525C37.7589 47.9872 37.5505 48.0604 37.3357 48.06Z" fill="url(#paint0_linear_85_646)"></path><path d="M42.6257 18.01H13.3757L15.0257 8.76996C15.0615 8.55277 15.1741 8.35565 15.3429 8.21437C15.5117 8.07309 15.7256 7.99702 15.9457 7.99996H44.0257C44.1627 7.99912 44.2982 8.02857 44.4225 8.0862C44.5468 8.14382 44.6568 8.2282 44.7447 8.3333C44.8326 8.43839 44.8962 8.56162 44.9309 8.69415C44.9657 8.82669 44.9707 8.96526 44.9457 9.09996L43.5157 17.24C43.4771 17.4504 43.3679 17.6415 43.2061 17.7815C43.0443 17.9215 42.8395 18.0021 42.6257 18.01Z" fill="url(#paint1_linear_85_646)"></path><path d="M11.6057 28.03H1.60565L3.24567 18.79C3.28131 18.5719 3.39349 18.3736 3.56207 18.2306C3.73066 18.0877 3.94466 18.0095 4.16568 18.01H13.3957L11.6057 28.03Z" fill="#0064FF"></path><path d="M20.8257 28.03H11.6057L13.3657 18.03H23.3657L21.7357 27.27C21.6943 27.4819 21.5813 27.6732 21.4156 27.8116C21.2499 27.95 21.0415 28.0271 20.8257 28.03Z" fill="#00C7F8"></path><path d="M9.83568 38.04H0.935688C0.79868 38.0409 0.663172 38.0114 0.538868 37.9538C0.414564 37.8962 0.304533 37.8118 0.216633 37.7067C0.128733 37.6016 0.0651222 37.4784 0.0303844 37.3458C-0.00435338 37.2133 -0.00937267 37.0747 0.0156749 36.94L1.58568 28.03H11.5857L9.83568 38.04Z" fill="#00C7F8"></path></g><defs><linearGradient id="paint0_linear_85_646" x1="6.02567" y1="43.05" x2="42.1857" y2="43.05" gradientUnits="userSpaceOnUse"><stop stop-color="#FFA000"></stop><stop offset=".5" stop-color="#FFB700"></stop><stop offset="1" stop-color="#FFD300"></stop></linearGradient><linearGradient id="paint1_linear_85_646" x1="13.3757" y1="13.01" x2="45.0057" y2="13.01" gradientUnits="userSpaceOnUse"><stop offset=".04" stop-color="#0064FF"></stop><stop offset=".29" stop-color="#006DFF"></stop><stop offset=".7" stop-color="#0085FF"></stop><stop offset="1" stop-color="#009BFF"></stop></linearGradient><clipPath id="clip0_85_646"><path fill="#fff" d="M0 0H242V56H0z"></path></clipPath></defs></svg>